PathFileType	4	(X/Y/Z)	OpenSim_Sub02_CSStiffKnee_Accel.trc
DataRate	CameraRate	NumFrames	NumMarkers	Units	OrigDataRate	OrigDataStartFrame	OrigNumFrames
100	100	41	8	m	100	2585	6891
Frame#	Time	torso_imu_offset_imu	pelvis_imu_offset_imu	tibia_r_imu_offset_imu	femur_r_imu_offset_imu	tibia_l_imu_offset_imu	femur_l_imu_offset_imu	toes_r_imu_offset_imu	toes_l_imu_offset_imu
				X1	Y1	Z1	X2	Y2	Z2	X3	Y3	Z3	X4	Y4	Z4	X5	Y5	Z5	X6	Y6	Z6	X7	Y7	Z7	X8		Y8	Z8	

2585	25.84000000	8.41327239	0.72965999	6.26470261	8.70837084	-1.92695576	0.34401007	7.13300069	2.30234309	2.46252192	7.84027953	-10.39790549	1.71514644	10.66748635	-0.18194356	1.78018655	9.79900866	-0.20894518	-1.91289048	21.16385760	2.07878573	-5.49130886	5.88730569	0.21615811	10.92445733
2586	25.85000000	8.59914127	0.63513552	6.27201704	8.99526982	-2.01175539	0.21128083	7.62409129	2.75653821	-0.61669924	8.00794600	-8.94634679	2.82786148	11.02137007	0.09022524	1.41166389	9.76273887	-0.02371468	-2.15340353	21.62449121	1.47147479	-7.36264118	5.80667569	0.28167508	10.92912664
2587	25.86000000	8.75279319	0.63643882	6.29111488	9.20021369	-2.17864893	-0.05064179	7.04397742	1.51322752	-0.57211411	7.51837043	-7.44236205	4.60566282	11.29508437	0.21616504	1.08037791	9.58651667	0.31385597	-2.15073802	20.34107371	-0.36522743	-9.99139387	5.45797147	0.49756731	11.20965684
2588	25.87000000	8.96131517	0.59672534	6.52241065	9.49435026	-2.21910827	0.05590885	6.82177648	0.61361800	-0.64502468	6.78214485	-6.42939047	5.88207860	11.19217417	0.27531096	0.69823576	9.58286867	0.62537851	-2.07882524	23.24453124	1.21949226	-12.08034441	5.40039720	0.59313643	11.20334391
2589	25.88000000	9.07351313	0.62950114	6.66413024	9.63668491	-2.27438991	0.06717922	6.94277743	0.05549159	-0.16447954	5.80343685	-5.22663848	6.11085006	11.17990215	0.38436384	0.49282193	9.71715744	0.84325029	-1.91353395	22.11575896	2.96070288	-15.69868057	5.45499327	0.76797622	11.17623516
2590	25.89000000	9.14823454	0.70561188	6.69811310	10.19931237	-2.29905808	0.75063648	7.14089345	-0.13166869	0.61821882	5.31198305	-4.00284094	6.37831531	11.49822795	0.37556130	0.78214001	9.74154626	0.89977891	-1.96261341	2.00191805	3.96060806	-9.37865782	5.56526800	1.04651912	11.25073454
2591	25.90000000	9.45701380	0.82891348	7.09719147	12.03661341	-1.33767647	4.00083113	11.46988839	0.01826665	-2.09403757	6.01320095	-2.62243229	7.82203132	12.20808440	0.77430890	0.49462589	10.09778171	1.02127441	-2.38259285	-24.02722205	0.29302540	25.86706462	5.86646969	0.77107918	11.45978140
2592	25.91000000	10.94801185	0.93352082	8.09512272	14.72706965	1.68703721	7.12937266	22.63060095	-4.68519553	0.96955215	13.95698711	-2.58271622	7.53921834	13.76584356	1.25947567	0.42911875	10.65716859	1.03714349	-2.62260015	-8.97925569	-15.14210445	1.16657348	4.84518937	1.23084024	12.62257900
2593	25.92000000	13.97507991	0.53562607	8.95497482	15.68785923	4.82812028	5.89774745	30.44819145	-10.57524058	12.57269674	26.76405351	-7.20729530	2.46047678	15.11372785	2.59354407	0.82692900	11.04601319	0.39458146	-1.98555392	17.21413114	0.10720451	14.76991172	4.81360038	2.05382078	12.52337374
2594	25.93000000	15.90850764	-0.66122760	8.66477410	14.71097719	4.83811710	7.24578846	25.00310791	-10.32114032	8.45755864	24.96458532	-7.39913147	-1.98250724	15.27449940	3.68956265	1.83422601	11.00296422	-0.61533576	-1.50046650	67.58853639	6.40120057	47.22233708	5.37803445	2.46563580	12.24888879
2595	25.94000000	14.90076944	-1.29949957	7.75652539	15.66876746	5.49093746	9.95371246	19.70747266	-10.38724627	2.42973971	22.77948276	-6.09143620	-2.64987378	14.88435347	3.47628075	0.77453457	10.83293909	-1.41237068	-1.31364975	48.35217141	22.51338621	-0.20226662	6.13391645	1.87837969	12.37331019
2596	25.95000000	14.19978822	-0.80844552	8.29234829	14.96132133	3.72640525	6.27333241	10.77737198	-6.59924266	9.38004022	16.86124628	-7.20347684	-4.36586360	14.64766329	3.62255361	-0.06099216	9.99560636	-2.30561146	-0.22964282	-9.44774061	14.85196427	16.21184279	7.03482599	2.57255604	13.34620340
2597	25.96000000	14.69860601	-0.46555704	8.53757257	10.00288955	-1.64378100	5.79588403	2.78658170	9.83576525	2.57129520	10.39769064	-5.63861642	-3.69684757	13.76621301	2.84185357	1.81067538	10.24998894	-3.21095895	1.57526900	5.82891876	-8.12231982	3.39137654	8.47564042	0.06841756	11.97644207
2598	25.97000000	13.66290126	-0.91607181	7.74790587	8.36628532	-3.53089021	7.05272511	2.64366328	23.85993448	-8.54913161	8.66853873	-0.97086278	-1.09999108	13.29502235	-0.64726946	0.99548136	11.57975424	-3.93030769	3.14259801	6.46993675	4.94455336	10.35425683	11.81802194	-5.16812515	11.24674040
2599	25.98000000	11.75964510	-1.19676576	7.26636102	9.18940060	-4.64039189	7.09966588	2.76236521	21.66479851	-3.52846059	6.16520517	6.67295085	6.29466326	13.13445089	-4.14376164	0.73741195	12.55470194	-5.14872305	3.68378954	4.53883702	2.32005925	9.58080875	16.51949385	0.25607661	13.37006503
2600	25.99000000	10.82990074	-1.15289060	6.64638960	10.77192802	-5.35091384	7.00756989	1.96648983	19.84244291	2.61464483	-0.91543968	8.81166200	7.91277180	10.55868939	-6.84853703	3.26309049	12.93383049	-5.38303406	3.99906897	3.10062302	-4.95323244	9.75277815	19.28427252	1.20514079	11.04018857
2601	26	10.74651373	-1.40387910	5.85581202	11.19494303	-5.64518468	6.84704116	1.25549712	10.87571573	2.80412336	-0.78743932	7.43496485	1.47944888	8.29473433	-10.43133791	7.38211432	12.76745622	-5.94605731	4.00399809	4.70752900	-0.00496758	9.59414490	18.85900782	2.16108154	12.20054303
2602	26.01000000	10.90186680	-1.86773543	5.35694934	10.64086917	-4.84740754	6.46976914	7.90551292	-0.62263485	2.00328404	5.04023791	5.38220499	-1.57203346	6.39567910	-13.11736657	8.45788932	12.17496451	-6.40533567	3.39316767	6.11243873	-0.07619626	8.52838068	16.44429725	2.52022789	13.13310957
2603	26.02000000	11.01859873	-2.13782501	5.21827635	9.58804703	-2.60833228	5.83475157	14.56487426	3.19695367	-2.31361487	9.90055405	1.72009822	-3.64741487	5.12720230	-13.58281321	5.34224142	11.77335191	-6.93199213	2.38088303	5.19183021	0.86091643	8.78569088	11.50000519	6.08619673	13.23914527
2604	26.03000000	10.91520028	-2.14996084	5.18148010	8.80034292	0.09235389	5.50215682	15.23024147	14.89480861	-1.35924275	15.45999524	-2.31841250	-4.41512515	4.15492046	-12.99276361	2.42315731	11.89274264	-7.58815534	1.92655602	5.48036670	1.58138356	8.96526459	4.61195404	17.12650258	17.77305665
2605	26.04000000	10.43454806	-1.83143874	5.30361128	9.03716361	2.24685047	5.21663034	12.21365986	12.17450389	2.61760112	19.15721940	-4.86468966	-3.62342897	3.06232012	-12.33487314	0.58571001	11.86562003	-7.38427105	2.08880933	5.29133700	-0.12691143	8.91409222	9.24159093	25.24700262	27.02691321
2606	26.05000000	9.87385679	-1.33644061	5.44930637	9.73299385	3.43953917	5.05258326	9.38116285	-1.32110817	2.73521936	16.18231995	-5.67212473	-2.70841785	0.89252205	-10.55887818	0.31935039	11.64795923	-5.99993323	2.40723169	4.19480571	0.30400106	9.33906391	0.37136286	11.24314314	16.63431546
2607	26.06000000	9.58520413	-0.76877157	5.46491789	9.64613997	3.51265708	4.78181257	8.19509421	-5.38480947	1.84174838	10.97788175	-5.83468417	-1.75437013	-0.29492265	-7.23176588	1.26899022	11.09258487	-4.28308819	2.50599693	4.41826341	0.95848792	9.28886952	-4.04157679	3.87195324	10.67363438
2608	26.07000000	9.53459099	-0.20358750	5.36070817	9.60360748	2.96417788	4.68068030	9.26456356	-3.18106933	1.12864961	8.03588076	-5.35535508	-1.21868471	0.03396371	-3.71464183	3.26534008	10.04310022	-3.06549797	2.10797319	4.10911180	1.58377631	9.20568530	-1.90571641	-0.72549792	10.49270063
2609	26.08000000	9.18105775	0.08994547	5.23172674	9.67775216	2.08333103	4.69733895	10.01922514	-0.17423383	0.49820561	6.91999618	-4.83817209	-0.69646713	-0.17253254	-0.78643814	4.84676533	8.96311457	-2.59519819	1.48253328	3.66277439	0.68517453	9.31479465	-0.64483240	-0.97742643	11.05014443
2610	26.09000000	8.50470010	0.13814187	5.17894035	9.27828136	0.96858229	4.74204451	9.64285949	3.77436064	-0.11061023	6.77916668	-3.75097771	0.19876264	-0.30819075	-0.41479920	5.40095019	8.54701172	-2.48614726	0.87820695	4.31565874	-0.27877236	9.01476363	0.76257756	0.33445872	12.12696475
2611	26.10000000	7.87637387	-0.01318364	5.05488303	8.53483803	-0.35496225	4.59278939	9.59374535	6.87807928	0.55633734	7.17276316	-2.46329804	0.58690235	0.31896585	-2.31667054	5.55042298	8.59103329	-2.77533286	0.80229994	5.03754903	-0.43510549	8.58908749	0.81385769	0.70963894	11.61547364
2612	26.11000000	7.82436325	-0.12106184	5.17175074	7.63840706	-1.30309725	4.51483113	9.78878914	7.90443124	1.17796778	7.92922792	-1.19665484	0.18238752	0.85389660	-4.47238691	6.00264542	8.40633442	-3.57190190	0.63390901	4.80211648	0.20085855	8.66907627	0.98577374	-0.14339927	10.57526839
2613	26.12000000	8.09987041	-0.38492763	5.34230722	6.94196753	-1.50583697	4.42324430	9.08749794	6.11216235	2.30690529	8.61907841	-0.44434452	0.24826227	1.31740812	-5.36982945	6.30624484	8.34042739	-4.31274065	0.45271011	4.65999242	0.79890724	8.88776203	1.39818908	-0.79608191	9.56654650
2614	26.13000000	8.16535798	-0.68531123	5.13633753	6.60040319	-1.07079197	4.26066529	8.33373128	3.22917622	2.58504653	8.98120437	-0.38647006	0.82845559	1.64104910	-4.76680249	6.61434366	8.43447527	-4.68453237	0.44982676	4.39024404	0.80164726	8.93358623	1.73857740	-0.52542922	8.81372031
2615	26.14000000	8.04367074	-0.96370121	5.46384990	6.54749888	-0.35164535	4.08297374	8.72402653	1.76248550	1.99669675	9.23340849	-0.88882796	1.08607600	1.88003596	-3.20073102	7.57661816	8.34978193	-4.82165110	0.43652038	4.15649796	0.66921698	9.06569776	2.20805345	0.04395586	8.31257859
2616	26.15000000	7.80181468	-1.14002739	5.61100635	6.74561360	0.27551011	4.00727204	9.80131757	1.41285549	1.47735567	9.48323205	-1.71882488	0.81958407	2.13163402	-1.49934025	7.71930929	8.09661999	-4.62794152	0.32090096	4.64088907	0.53898621	8.89111030	3.06035280	-0.04500056	8.24362332
2617	26.16000000	7.47833567	-1.32506903	5.50254521	7.08316304	0.81270652	3.99713313	10.68785995	0.33092409	1.84661946	9.49829531	-1.89939130	0.77270754	2.53874591	-0.75884201	7.39036777	7.86302963	-4.21366344	0.13283243	4.55044410	0.55490459	8.71408121	4.10396670	-0.50259486	8.72550177
2618	26.17000000	7.30370170	-1.42141320	5.40383852	7.26153893	1.24331830	4.08676148	10.58863691	-1.01721425	1.55750998	9.18786731	-1.52611252	1.05018102	3.49224420	-1.59713738	6.57257851	7.67527824	-3.17098629	-0.15772842	4.29731355	0.76553155	9.06338756	5.16396559	-0.99173430	9.50802747
2619	26.18000000	7.24106037	-1.38511861	5.25153469	7.52460705	1.64272718	4.07748490	9.95786127	-0.57034577	1.29028762	9.15461415	-1.44391532	0.29575126	4.79932070	-3.25679646	5.52264549	7.94345452	-3.10410244	0.10045406	4.53425164	0.51139243	8.96288519	6.33921058	-1.06969816	10.14123020
2620	26.19000000	7.26953566	-1.26971753	5.25023904	7.69676986	1.78990613	3.95515183	9.57995567	0.77618231	0.97958183	9.15246086	-2.21826799	0.03182410	5.77275417	-4.46695994	4.80847092	8.33119765	-2.60290779	0.30836319	4.65738897	0.17241265	8.70786309	7.17438874	-0.38537726	10.48905463
2621	26.20000000	7.47551612	-1.15753657	5.38244157	7.81916136	1.66179101	3.77993067	9.43641912	2.05675934	1.02226624	9.28475383	-2.34375171	0.37214667	5.95501610	-4.76720744	4.77216474	8.93425280	-1.66807513	0.77445945	4.65834564	0.17468246	8.75619951	7.78268312	0.35247688	10.42503112
2622	26.21000000	7.83178475	-1.03459908	5.37711413	8.27589039	1.39404254	3.51519554	9.20646948	2.84413758	1.05335329	9.24419926	-1.81630326	0.08405902	5.62313759	-4.39047224	5.56326893	9.71102354	-0.94680945	1.41245540	4.63034988	0.08794620	8.75305972	8.80513360	0.96370672	10.33310777
2623	26.22000000	8.13612896	-0.89273586	5.27345194	8.79442862	1.19575397	3.26487970	9.26760035	3.40082091	0.95360767	9.42627464	-1.19080487	-0.12603613	5.18930166	-3.88431877	6.86684283	10.09777646	-0.17665309	1.94757503	4.47033991	0.27390489	8.81392084	10.00350381	2.31020186	10.55729147
2624	26.23000000	8.49000282	-0.74908365	5.35582581	9.03184778	1.15942156	2.98241017	9.65151183	3.62510414	1.26760398	9.80630654	-0.91497585	-0.53164422	5.44949989	-3.78943796	7.64702144	10.12165702	0.14612265	2.03449275	4.71565370	0.56789995	8.85230239	12.13079979	3.12529025	10.95383383
2625	26.24000000	8.85376566	-0.58699406	5.56088967	9.17824337	1.33258937	2.96516601	10.13733151	3.20186532	1.11444365	9.57454481	-0.90225907	-0.64866455	6.93482347	-4.24672288	7.19218183	10.05619915	0.22887298	1.93635050	5.25098312	0.74511367	8.56842157	18.07529864	1.23309614	12.35164252
